P2
5 4
255
  0 255  64 255   0
255   0 127   0 255
 64 127   0 127  64
255   0 127   0 255